<svg width="32" height="32" viewBox="0 0 32 32" fill="none" xmlns="http://www.w3.org/2000/svg">
<g id="info_FILL1_wght400_GRAD200_opsz48 1">
<path id="Vector" d="M16.1287 22.9338C16.4651 22.9338 16.75 22.8157 16.9833 22.5796C17.2167 22.3435 17.3333 22.0505 17.3333 21.7005V15.8671C17.3333 15.5388 17.2147 15.2567 16.9775 15.0209C16.7403 14.785 16.4534 14.6671 16.117 14.6671C15.7805 14.6671 15.4936 14.785 15.2561 15.0209C15.0187 15.2567 14.9 15.5388 14.9 15.8671V21.7005C14.9 22.0505 15.0207 22.3435 15.262 22.5796C15.5033 22.8157 15.7922 22.9338 16.1287 22.9338ZM15.9965 11.9338C16.3544 11.9338 16.6556 11.8162 16.9 11.5809C17.1444 11.3456 17.2667 11.0541 17.2667 10.7063C17.2667 10.3146 17.1459 9.99907 16.9043 9.75962C16.6628 9.52018 16.3635 9.40046 16.0064 9.40046C15.6244 9.40046 15.3167 9.51823 15.0833 9.75379C14.85 9.98932 14.7333 10.2974 14.7333 10.678C14.7333 11.0396 14.8544 11.3393 15.0965 11.5771C15.3386 11.8149 15.6386 11.9338 15.9965 11.9338ZM15.9936 29.8671C14.0844 29.8671 12.2897 29.5002 10.6095 28.7665C8.9294 28.0327 7.46355 27.04 6.212 25.7885C4.96044 24.5369 3.96778 23.0688 3.234 21.3841C2.50022 19.6994 2.13333 17.8993 2.13333 15.9838C2.13333 14.0707 2.50088 12.2728 3.23596 10.5902C3.97105 8.90753 4.96756 7.43742 6.2255 6.17982C7.48341 4.92222 8.9507 3.93349 10.6274 3.21362C12.304 2.49373 14.0955 2.13379 16.0019 2.13379C17.9163 2.13379 19.7182 2.49373 21.4076 3.21362C23.097 3.93349 24.5681 4.92238 25.8209 6.18029C27.0736 7.43818 28.0611 8.91203 28.7833 10.6019C29.5056 12.2917 29.8667 14.0943 29.8667 16.0097C29.8667 17.925 29.5067 19.7172 28.7868 21.3862C28.067 23.0552 27.0782 24.5163 25.8206 25.7696C24.563 27.0229 23.0895 28.0192 21.4001 28.7584C19.7107 29.4975 17.9085 29.8671 15.9936 29.8671Z" fill="#8C8C8C"/>
</g>
</svg>
