<svg width="10" height="10" viewBox="0 0 10 10" fill="none" xmlns="http://www.w3.org/2000/svg">
<g id="fluent:ios-arrow-24-filled" clip-path="url(#clip0_617_1920)">
<path id="Vector" d="M3.11764 8.46397C3.08005 8.50375 3.05066 8.55055 3.03115 8.60168C3.01164 8.65282 3.0024 8.7073 3.00395 8.76201C3.0055 8.81672 3.01781 8.87059 3.04017 8.92054C3.06254 8.97049 3.09452 9.01555 3.1343 9.05314C3.17408 9.09073 3.22088 9.12012 3.27201 9.13962C3.32315 9.15913 3.37763 9.16837 3.43234 9.16683C3.48705 9.16528 3.54092 9.15297 3.59087 9.1306C3.64082 9.10824 3.68588 9.07625 3.72347 9.03647L7.26514 5.28647C7.33828 5.20911 7.37903 5.10668 7.37903 5.00022C7.37903 4.89376 7.33828 4.79133 7.26514 4.71397L3.72347 0.963555C3.68613 0.922904 3.64108 0.890079 3.59094 0.866985C3.54081 0.843891 3.48658 0.83099 3.43142 0.82903C3.37625 0.827071 3.32125 0.836091 3.2696 0.855568C3.21795 0.875046 3.17069 0.904591 3.13055 0.942489C3.09042 0.980387 3.05822 1.02588 3.03581 1.07633C3.01341 1.12678 3.00126 1.18118 3.00005 1.23636C2.99885 1.29155 3.00863 1.34642 3.02881 1.3978C3.049 1.44918 3.07919 1.49603 3.11764 1.53564L6.3893 5.00022L3.11764 8.46397Z" fill="white"/>
</g>
<defs>
<clipPath id="clip0_617_1920">
<rect width="10" height="10" fill="white" transform="translate(10 10) rotate(180)"/>
</clipPath>
</defs>
</svg>
