<svg width="41" height="41" viewBox="0 0 41 41" fill="none" xmlns="http://www.w3.org/2000/svg">
<g id="ph:arrow-up-bold">
<path id="Vector" d="M19.3674 7.73663C19.5393 7.91372 19.6745 8.12299 19.7653 8.35244C19.8561 8.5819 19.9008 8.82703 19.8967 9.07377C19.8925 9.32052 19.8398 9.56402 19.7413 9.79031C19.6429 10.0166 19.5008 10.2213 19.3231 10.3925L11.1447 18.3025L34.1102 18.6857C34.6075 18.694 35.081 18.8994 35.4267 19.2569C35.7724 19.6143 35.962 20.0945 35.9537 20.5917C35.9454 21.0889 35.7399 21.5624 35.3825 21.9082C35.025 22.2539 34.5449 22.4434 34.0477 22.4351L11.0821 22.052L18.9921 30.2335C19.3384 30.5916 19.5283 31.0725 19.52 31.5706C19.5116 32.0687 19.3058 32.5431 18.9477 32.8894C18.5897 33.2357 18.1087 33.4256 17.6106 33.4173C17.1126 33.409 16.6382 33.2031 16.2919 32.8451L5.23111 21.409C5.05924 21.2319 4.92402 21.0226 4.8332 20.7931C4.74238 20.5637 4.69774 20.3186 4.70186 20.0718C4.70598 19.8251 4.75876 19.5816 4.85719 19.3553C4.95561 19.129 5.09774 18.9243 5.27542 18.7531L16.7115 7.69232C16.8886 7.52045 17.0979 7.38523 17.3273 7.29441C17.5568 7.20359 17.8019 7.15896 18.0487 7.16307C18.2954 7.16719 18.5389 7.21997 18.7652 7.3184C18.9915 7.41682 19.1962 7.55895 19.3674 7.73663Z" fill="#8C8C8C"/>
</g>
</svg>
