<svg width="28" height="28" viewBox="0 0 28 28" fill="none" xmlns="http://www.w3.org/2000/svg">
<g id="bxs:bell">
<path id="Vector" d="M14 25.6663C14.7225 25.6672 15.4274 25.443 16.0166 25.0249C16.6058 24.6067 17.0501 24.0153 17.2877 23.333H10.7123C10.9499 24.0153 11.3942 24.6067 11.9834 25.0249C12.5726 25.443 13.2775 25.6672 14 25.6663ZM22.1667 17.0167V11.6663C22.1667 7.91317 19.6175 4.75151 16.1642 3.80067C15.8223 2.93967 14.987 2.33301 14 2.33301C13.013 2.33301 12.1777 2.93967 11.8358 3.80067C8.3825 4.75267 5.83333 7.91317 5.83333 11.6663V17.0167L3.84183 19.0082C3.73328 19.1163 3.6472 19.2449 3.58853 19.3864C3.52987 19.528 3.49978 19.6798 3.5 19.833V20.9997C3.5 21.3091 3.62292 21.6058 3.84171 21.8246C4.0605 22.0434 4.35725 22.1663 4.66667 22.1663H23.3333C23.6428 22.1663 23.9395 22.0434 24.1583 21.8246C24.3771 21.6058 24.5 21.3091 24.5 20.9997V19.833C24.5002 19.6798 24.4701 19.528 24.4115 19.3864C24.3528 19.2449 24.2667 19.1163 24.1582 19.0082L22.1667 17.0167Z" fill="#FCFCFC"/>
</g>
</svg>
