<svg width="12" height="12" viewBox="0 0 12 12" fill="none" xmlns="http://www.w3.org/2000/svg">
<g id="fa6-solid:crown" clip-path="url(#clip0_617_1914)">
<path id="Vector" d="M6.4375 2.48438C6.675 2.32031 6.83333 2.02266 6.83333 1.6875C6.83333 1.16953 6.46042 0.75 6 0.75C5.53958 0.75 5.16667 1.16953 5.16667 1.6875C5.16667 2.025 5.325 2.32031 5.5625 2.48438L4.36875 5.17031C4.17917 5.59688 3.6875 5.71875 3.35625 5.42109L1.5 3.75C1.60417 3.59297 1.66667 3.39844 1.66667 3.1875C1.66667 2.66953 1.29375 2.25 0.833333 2.25C0.372917 2.25 0 2.66953 0 3.1875C0 3.70547 0.372917 4.125 0.833333 4.125H0.847917L1.8 10.0172C1.91458 10.7297 2.46667 11.25 3.1125 11.25H8.8875C9.53125 11.25 10.0833 10.732 10.2 10.0172L11.1521 4.125H11.1667C11.6271 4.125 12 3.70547 12 3.1875C12 2.66953 11.6271 2.25 11.1667 2.25C10.7063 2.25 10.3333 2.66953 10.3333 3.1875C10.3333 3.39844 10.3958 3.59297 10.5 3.75L8.64375 5.42109C8.3125 5.71875 7.82083 5.59688 7.63125 5.17031L6.4375 2.48438Z" fill="white"/>
</g>
<defs>
<clipPath id="clip0_617_1914">
<rect width="12" height="12" fill="white"/>
</clipPath>
</defs>
</svg>
