<svg width="134" height="134" viewBox="0 0 134 134" fill="none" xmlns="http://www.w3.org/2000/svg">
<g id="Group 165">
<g id="Group 86">
<rect id="Rectangle 173" x="0.5" y="0.5" width="133" height="133" rx="7.5" fill="#FCFCFC" stroke="#B2B2B2"/>
</g>
<path id="Vector" d="M48.3333 91C46.8667 91 45.6107 90.4773 44.5653 89.432C43.52 88.3867 42.9982 87.1315 43 85.6667V48.3333C43 46.8667 43.5227 45.6107 44.568 44.5653C45.6133 43.52 46.8684 42.9982 48.3333 43H85.6667C87.1333 43 88.3893 43.5227 89.4347 44.568C90.48 45.6133 91.0018 46.8684 91 48.3333V85.6667C91 87.1333 90.4773 88.3893 89.432 89.4347C88.3867 90.48 87.1315 91.0018 85.6667 91H48.3333ZM51 80.3333H83L73 67L65 77.6667L59 69.6667L51 80.3333Z" fill="#B2B2B2"/>
</g>
</svg>
