<svg width="35" height="36" viewBox="0 0 35 36" fill="none" xmlns="http://www.w3.org/2000/svg">
<g id="groups_FILL1_wght400_GRAD200_opsz48 1" clip-path="url(#clip0_1060_4412)">
<path id="Vector" d="M1.03297 27.3001C0.658906 27.3001 0.345703 27.1673 0.0933594 26.9017C-0.158984 26.636 -0.285156 26.3018 -0.285156 25.8991V25.0072C-0.285156 23.9466 0.231406 23.0886 1.26453 22.4332C2.29766 21.7778 3.66181 21.4501 5.35699 21.4501C5.55091 21.4501 5.73372 21.4563 5.90544 21.4688C6.07712 21.4813 6.25797 21.4832 6.44797 21.4745C6.21047 21.9832 6.03828 22.4835 5.93141 22.9754C5.82453 23.4673 5.77109 23.9964 5.77109 24.5626V27.3001H1.03297ZM9.58297 27.3001C9.20891 27.3001 8.8957 27.1673 8.64336 26.9017C8.39102 26.636 8.26484 26.3063 8.26484 25.9126V24.5576C8.26484 23.7214 8.4723 22.9482 8.88721 22.238C9.3021 21.5277 9.91366 20.9126 10.7219 20.3926C11.5301 19.8726 12.4733 19.4813 13.5514 19.2188C14.6295 18.9563 15.8108 18.8251 17.0954 18.8251C18.4046 18.8251 19.5983 18.9563 20.6765 19.2188C21.7546 19.4813 22.6999 19.8751 23.5123 20.4001C24.2961 20.9251 24.8958 21.5376 25.3114 22.2376C25.727 22.9376 25.9348 23.7172 25.9348 24.5764V25.8983C25.9348 26.3016 25.8088 26.636 25.5568 26.9017C25.3047 27.1673 25.0033 27.3001 24.6523 27.3001H9.58297ZM28.4286 27.3001V24.5572C28.4286 24.005 28.3752 23.4749 28.2683 22.967C28.1614 22.459 28.0011 21.9624 27.7873 21.4774C27.9773 21.4842 28.1582 21.4813 28.3299 21.4688C28.5015 21.4563 28.6769 21.4501 28.8561 21.4501C30.559 21.4501 31.9228 21.7706 32.9476 22.4116C33.9724 23.0525 34.4848 23.916 34.4848 25.0019V25.9126C34.4848 26.3063 34.3588 26.636 34.1068 26.9017C33.8547 27.1673 33.5532 27.3001 33.2023 27.3001H28.4286ZM5.32974 20.4001C4.60272 20.4001 3.97797 20.125 3.45547 19.5749C2.93297 19.0248 2.67172 18.3634 2.67172 17.5909C2.67172 16.8137 2.93303 16.1501 3.45565 15.6001C3.97829 15.0501 4.60656 14.7751 5.34046 14.7751C6.0788 14.7751 6.70922 15.0492 7.23172 15.5973C7.75422 16.1454 8.01547 16.8137 8.01547 17.6022C8.01547 18.3675 7.75511 19.0251 7.23439 19.5751C6.71367 20.1251 6.07879 20.4001 5.32974 20.4001ZM28.8422 20.4001C28.1152 20.4001 27.4905 20.125 26.968 19.5749C26.4455 19.0248 26.1842 18.3634 26.1842 17.5909C26.1842 16.8137 26.4455 16.1501 26.9681 15.6001C27.4908 15.0501 28.1191 14.7751 28.853 14.7751C29.5913 14.7751 30.2217 15.0492 30.7442 15.5973C31.2667 16.1454 31.528 16.8137 31.528 17.6022C31.528 18.3675 31.2676 19.0251 30.7469 19.5751C30.2262 20.1251 29.5913 20.4001 28.8422 20.4001ZM17.1166 17.7001C15.8546 17.7001 14.7763 17.235 13.8817 16.3047C12.9871 15.3744 12.5398 14.2448 12.5398 12.9159C12.5398 11.5804 12.9871 10.4438 13.8817 9.50635C14.7763 8.56885 15.8546 8.1001 17.1166 8.1001C18.3849 8.1001 19.4591 8.56595 20.3394 9.49765C21.2197 10.4293 21.6598 11.5664 21.6598 12.9089C21.6598 14.2447 21.2197 15.3772 20.3394 16.3063C19.4591 17.2355 18.3849 17.7001 17.1166 17.7001Z" fill="#5F5F5F"/>
</g>
<defs>
<clipPath id="clip0_1060_4412">
<rect width="34.2" height="36" fill="white"/>
</clipPath>
</defs>
</svg>
