<svg width="20" height="20" viewBox="0 0 20 20" fill="none" xmlns="http://www.w3.org/2000/svg">
<g id="Group">
<path id="Vector" d="M10 15.8337C10.2041 15.8337 10.4011 15.9086 10.5537 16.0443C10.7062 16.1799 10.8036 16.3668 10.8275 16.5695L10.8333 16.667V17.5003C10.8331 17.7127 10.7518 17.917 10.606 18.0715C10.4602 18.2259 10.2609 18.3189 10.0489 18.3313C9.83681 18.3437 9.62803 18.2748 9.46515 18.1384C9.30227 18.0021 9.1976 17.8087 9.17251 17.5978L9.16668 17.5003V16.667C9.16668 16.446 9.25448 16.234 9.41076 16.0777C9.56704 15.9215 9.779 15.8337 10 15.8337ZM15.2608 14.092L15.3392 14.1612L15.9225 14.7445C16.072 14.8945 16.1587 15.0957 16.1652 15.3073C16.1717 15.5189 16.0973 15.7251 15.9573 15.8839C15.8173 16.0427 15.6221 16.1422 15.4113 16.1623C15.2005 16.1824 14.99 16.1215 14.8225 15.992L14.7442 15.9228L14.1608 15.3395C14.017 15.1959 13.9306 15.0048 13.9179 14.802C13.9051 14.5992 13.9669 14.3987 14.0916 14.2383C14.2163 14.0779 14.3954 13.9685 14.595 13.9308C14.7947 13.8932 15.0012 13.9297 15.1758 14.0337L15.2608 14.092ZM5.83918 14.1612C5.98266 14.3047 6.06885 14.4956 6.08159 14.6981C6.09432 14.9006 6.03272 15.1008 5.90835 15.2612L5.83918 15.3395L5.25585 15.9228C5.10588 16.0723 4.90465 16.1591 4.69303 16.1655C4.4814 16.172 4.27525 16.0976 4.11645 15.9576C3.95764 15.8176 3.85809 15.6224 3.83801 15.4116C3.81794 15.2008 3.87884 14.9903 4.00835 14.8228L4.07751 14.7445L4.66085 14.1612C4.81712 14.0049 5.02904 13.9172 5.25001 13.9172C5.47098 13.9172 5.68291 14.0049 5.83918 14.1612ZM3.33335 9.16699C3.54575 9.16723 3.75004 9.24856 3.90449 9.39437C4.05893 9.54017 4.15187 9.73945 4.16432 9.95149C4.17677 10.1635 4.10778 10.3723 3.97146 10.5352C3.83513 10.6981 3.64176 10.8027 3.43085 10.8278L3.33335 10.8337H2.50001C2.28761 10.8334 2.08332 10.7521 1.92887 10.6063C1.77443 10.4605 1.68148 10.2612 1.66904 10.0492C1.65659 9.83713 1.72557 9.62834 1.8619 9.46547C1.99823 9.30259 2.1916 9.19791 2.40251 9.17283L2.50001 9.16699H3.33335ZM17.5 9.16699C17.7124 9.16723 17.9167 9.24856 18.0712 9.39437C18.2256 9.54017 18.3185 9.73945 18.331 9.95149C18.3434 10.1635 18.2745 10.3723 18.1381 10.5352C18.0018 10.6981 17.8084 10.8027 17.5975 10.8278L17.5 10.8337H16.6667C16.4543 10.8334 16.25 10.7521 16.0955 10.6063C15.9411 10.4605 15.8482 10.2612 15.8357 10.0492C15.8233 9.83713 15.8922 9.62834 16.0286 9.46547C16.1649 9.30259 16.3583 9.19791 16.5692 9.17283L16.6667 9.16699H17.5ZM5.17751 4.00866L5.25585 4.07783L5.83918 4.66116C5.98864 4.81112 6.07541 5.01235 6.08187 5.22398C6.08833 5.4356 6.014 5.64175 5.87397 5.80056C5.73394 5.95936 5.53872 6.05891 5.32795 6.07899C5.11718 6.09907 4.90667 6.03817 4.73918 5.90866L4.66085 5.83949L4.07751 5.25616C3.93425 5.11256 3.84829 4.92164 3.83573 4.71919C3.82318 4.51673 3.8849 4.31665 4.00931 4.15645C4.13373 3.99625 4.31231 3.88693 4.51157 3.84898C4.71083 3.81104 4.91709 3.84707 5.09168 3.95033L5.17751 4.00866ZM15.9225 4.07783C16.066 4.22132 16.1522 4.41224 16.1649 4.61476C16.1777 4.81728 16.1161 5.01749 15.9917 5.17783L15.9225 5.25616L15.3392 5.83949C15.1892 5.98895 14.988 6.07572 14.7764 6.08218C14.5647 6.08864 14.3586 6.01431 14.1998 5.87428C14.041 5.73426 13.9414 5.53903 13.9213 5.32826C13.9013 5.11749 13.9622 4.90699 14.0917 4.73949L14.1608 4.66116L14.7442 4.07783C14.9005 3.9216 15.1124 3.83384 15.3333 3.83384C15.5543 3.83384 15.7662 3.9216 15.9225 4.07783ZM10 1.66699C10.2041 1.66702 10.4011 1.74196 10.5537 1.87759C10.7062 2.01322 10.8036 2.20012 10.8275 2.40283L10.8333 2.50033V3.33366C10.8331 3.54606 10.7518 3.75035 10.606 3.9048C10.4602 4.05925 10.2609 4.15219 10.0489 4.16464C9.83681 4.17708 9.62803 4.1081 9.46515 3.97177C9.30227 3.83545 9.1976 3.64207 9.17251 3.43116L9.16668 3.33366V2.50033C9.16668 2.27931 9.25448 2.06735 9.41076 1.91107C9.56704 1.75479 9.779 1.66699 10 1.66699ZM10 5.83366C10.8164 5.83361 11.6148 6.0734 12.2961 6.52324C12.9774 6.97308 13.5115 7.61316 13.8321 8.36396C14.1528 9.11476 14.2458 9.94322 14.0996 10.7464C13.9534 11.5496 13.5745 12.2922 13.0099 12.8819C12.4453 13.4716 11.7199 13.8824 10.9238 14.0634C10.1277 14.2443 9.29599 14.1874 8.53196 13.8997C7.76793 13.612 7.10525 13.1062 6.62623 12.4451C6.1472 11.784 5.87294 10.9968 5.83751 10.1812L5.83335 10.0003L5.83751 9.81949C5.88411 8.74678 6.34302 7.73347 7.11853 6.99087C7.89404 6.24828 8.92629 5.83372 10 5.83366Z" fill="#B2B2B2"/>
</g>
</svg>
