<svg width="183" height="30" viewBox="0 0 183 30" fill="none" xmlns="http://www.w3.org/2000/svg">
<g id="&#236;&#139;&#156;&#236;&#149;&#136;1_&#234;&#176;&#128;&#235;&#161;&#156;&#235;&#176;&#176;&#236;&#185;&#152;" clip-path="url(#clip0_883_6482)">
<path id="Vector" d="M15.0591 15.2334H9.80337V21.5589C9.80337 22.0797 9.83104 22.557 9.88083 22.9856C9.93615 23.4142 10.0523 23.7885 10.2404 24.0977C10.4285 24.4124 10.7107 24.6511 11.0979 24.8193C11.4852 24.9874 11.9942 25.0742 12.6304 25.0742C12.9513 25.0742 13.3662 25.0417 13.8863 24.9766C14.4063 24.9115 14.7936 24.7596 15.0591 24.5263V29.4088C14.3952 29.642 13.7037 29.7994 12.99 29.8753C12.2708 29.9513 11.5682 29.9947 10.8767 29.9947C9.86976 29.9947 8.94032 29.8916 8.08834 29.68C7.23635 29.4739 6.49501 29.1375 5.85879 28.6818C5.22256 28.2261 4.72465 27.6348 4.36505 26.9024C4.00544 26.1755 3.82841 25.2858 3.82841 24.2442V15.2225H0V10.5353H3.82287V4.90967H9.79784V10.5353H15.0536V15.2225L15.0591 15.2334Z" fill="#00DDA8"/>
<path id="Vector_2" d="M17.3661 20.0399C17.3661 18.5317 17.6427 17.1646 18.2015 15.9386C18.7602 14.7126 19.5237 13.6655 20.4919 12.7921C21.46 11.9187 22.6053 11.2514 23.9164 10.7795C25.2331 10.3129 26.6328 10.0742 28.121 10.0742C29.6092 10.0742 31.0089 10.3075 32.3256 10.7795C33.6423 11.246 34.782 11.9187 35.7502 12.7921C36.7183 13.6655 37.4818 14.7126 38.0406 15.9386C38.5994 17.1646 38.876 18.5317 38.876 20.0399C38.876 21.548 38.5994 22.9151 38.0406 24.1411C37.4818 25.3672 36.7183 26.4142 35.7502 27.2876C34.782 28.161 33.6368 28.8283 32.3256 29.3003C31.0089 29.7668 29.6092 30.0055 28.121 30.0055C26.6328 30.0055 25.2331 29.7722 23.9164 29.3003C22.5997 28.8337 21.46 28.161 20.4919 27.2876C19.5237 26.4142 18.7602 25.3672 18.2015 24.1411C17.6427 22.9151 17.3661 21.548 17.3661 20.0399ZM23.3411 20.0399C23.3411 21.472 23.7615 22.633 24.5969 23.5173C25.4323 24.4015 26.6107 24.8464 28.121 24.8464C29.6314 24.8464 30.8098 24.4015 31.6452 23.5173C32.4805 22.633 32.901 21.472 32.901 20.0399C32.901 18.6077 32.4805 17.4467 31.6452 16.5625C30.8098 15.6782 29.6314 15.2334 28.121 15.2334C26.6107 15.2334 25.4323 15.6782 24.5969 16.5625C23.7615 17.4467 23.3411 18.6077 23.3411 20.0399Z" fill="#00DDA8"/>
<path id="Vector_3" d="M62.6984 29.528H57.1992V27.0271H57.1218C56.8839 27.3635 56.5685 27.7107 56.1868 28.0633C55.7995 28.4159 55.3514 28.736 54.8314 29.0181C54.3113 29.3056 53.7415 29.5389 53.1163 29.7233C52.4912 29.9078 51.8494 29.9946 51.1855 29.9946C49.7526 29.9946 48.4525 29.7559 47.2797 29.2731C46.1123 28.7902 45.111 28.1121 44.2701 27.2441C43.4347 26.3707 42.7874 25.3345 42.3393 24.141C41.8856 22.9421 41.6643 21.6293 41.6643 20.1971C41.6643 18.868 41.869 17.5986 42.2839 16.3888C42.6933 15.179 43.2798 14.1049 44.0377 13.1664C44.7956 12.2278 45.7195 11.4792 46.8039 10.9204C47.8938 10.3617 49.1275 10.0796 50.5106 10.0796C51.7609 10.0796 52.9227 10.2694 53.996 10.6438C55.0693 11.0235 55.9544 11.6637 56.646 12.575H56.7234V0H62.6984V29.528ZM57.1992 20.0344C57.1992 18.6022 56.7788 17.4412 55.9434 16.557C55.108 15.6727 53.9296 15.2278 52.4193 15.2278C50.9089 15.2278 49.7305 15.6727 48.8951 16.557C48.0597 17.4412 47.6393 18.6022 47.6393 20.0344C47.6393 21.4665 48.0597 22.6275 48.8951 23.5118C49.7305 24.396 50.9089 24.8409 52.4193 24.8409C53.9296 24.8409 55.108 24.396 55.9434 23.5118C56.7788 22.6275 57.1992 21.4665 57.1992 20.0344Z" fill="#00DDA8"/>
<path id="Vector_4" d="M65.6527 20.0399C65.6527 18.5317 65.9293 17.1646 66.4881 15.9386C67.0469 14.7126 67.8103 13.6655 68.7785 12.7921C69.7467 11.9187 70.8919 11.2514 72.203 10.7795C73.5198 10.3129 74.9194 10.0742 76.4077 10.0742C77.8959 10.0742 79.2956 10.3075 80.6123 10.7795C81.929 11.246 83.0686 11.9187 84.0368 12.7921C85.005 13.6655 85.7684 14.7126 86.3272 15.9386C86.886 17.1646 87.1626 18.5317 87.1626 20.0399C87.1626 21.548 86.886 22.9151 86.3272 24.1411C85.7684 25.3672 85.005 26.4142 84.0368 27.2876C83.0686 28.161 81.9234 28.8283 80.6123 29.3003C79.2956 29.7668 77.8959 30.0055 76.4077 30.0055C74.9194 30.0055 73.5198 29.7722 72.203 29.3003C70.8863 28.8337 69.7467 28.161 68.7785 27.2876C67.8103 26.4142 67.0469 25.3672 66.4881 24.1411C65.9293 22.9151 65.6527 21.548 65.6527 20.0399ZM71.6277 20.0399C71.6277 21.472 72.0481 22.633 72.8835 23.5173C73.7189 24.4015 74.8973 24.8464 76.4077 24.8464C77.918 24.8464 79.0964 24.4015 79.9318 23.5173C80.7672 22.633 81.1876 21.472 81.1876 20.0399C81.1876 18.6077 80.7672 17.4467 79.9318 16.5625C79.0964 15.6782 77.918 15.2334 76.4077 15.2334C74.8973 15.2334 73.7189 15.6782 72.8835 16.5625C72.0481 17.4467 71.6277 18.6077 71.6277 20.0399Z" fill="#00DDA8"/>
<path id="Vector_5" d="M104.054 15.3237H98.7978V21.6492C98.7978 22.17 98.8255 22.6474 98.8753 23.0759C98.9306 23.5045 99.0468 23.8788 99.2349 24.1881C99.423 24.5027 99.7052 24.7414 100.092 24.9096C100.48 25.0778 100.989 25.1646 101.625 25.1646C101.946 25.1646 102.361 25.132 102.881 25.0669C103.401 25.0018 103.788 24.8499 104.054 24.6166V29.4991C103.39 29.7324 102.698 29.8897 101.984 29.9656C101.265 30.0416 100.563 30.085 99.8711 30.085C98.8642 30.085 97.9348 29.9819 97.0828 29.7703C96.2308 29.5642 95.4895 29.2278 94.8533 28.7722C94.217 28.3165 93.7191 27.7251 93.3595 26.9928C92.9999 26.2658 92.8229 25.3761 92.8229 24.3345V15.3128H89V10.6257H92.8229V5H98.7978V10.6257H104.054V15.3128V15.3237Z" fill="#00DDA8"/>
<path id="Vector_6" d="M106.361 20.1302C106.361 18.6221 106.637 17.255 107.196 16.0289C107.755 14.8029 108.518 13.7559 109.486 12.8825C110.455 12.009 111.6 11.3418 112.911 10.8698C114.228 10.4032 115.627 10.1646 117.116 10.1646C118.604 10.1646 120.003 10.3978 121.32 10.8698C122.637 11.3363 123.777 12.009 124.745 12.8825C125.713 13.7559 126.476 14.8029 127.035 16.0289C127.594 17.255 127.87 18.6221 127.87 20.1302C127.87 21.6383 127.594 23.0054 127.035 24.2315C126.476 25.4575 125.713 26.5045 124.745 27.3779C123.777 28.2513 122.631 28.9186 121.32 29.3906C120.003 29.8571 118.604 30.0958 117.116 30.0958C115.627 30.0958 114.228 29.8626 112.911 29.3906C111.594 28.924 110.455 28.2513 109.486 27.3779C108.518 26.5045 107.755 25.4575 107.196 24.2315C106.637 23.0054 106.361 21.6383 106.361 20.1302ZM112.336 20.1302C112.336 21.5624 112.756 22.7233 113.591 23.6076C114.427 24.4919 115.605 24.9367 117.116 24.9367C118.626 24.9367 119.804 24.4919 120.64 23.6076C121.475 22.7233 121.896 21.5624 121.896 20.1302C121.896 18.698 121.475 17.5371 120.64 16.6528C119.804 15.7685 118.626 15.3237 117.116 15.3237C115.605 15.3237 114.427 15.7685 113.591 16.6528C112.756 17.5371 112.336 18.698 112.336 20.1302Z" fill="#00DDA8"/>
<path id="Vector_7" d="M128.512 10.6362H134.886L138.83 22.5494H138.908L142.216 10.6362H148.75L152.335 22.5494H152.412L156.036 10.6362H162.088L155.195 29.6181H149.297L145.275 16.9997H145.198L141.613 29.6181H135.599L128.507 10.6362H128.512Z" fill="#00DDA8"/>
<path id="Vector_8" d="M164.356 10.5462H170.093V13.123H170.17C170.353 12.7596 170.624 12.3961 170.967 12.0272C171.31 11.6637 171.725 11.3382 172.201 11.0507C172.677 10.7632 173.224 10.5299 173.833 10.3455C174.441 10.1664 175.105 10.0742 175.825 10.0742C177.34 10.0742 178.558 10.3021 179.487 10.7578C180.416 11.2135 181.141 11.8428 181.656 12.6511C182.176 13.4594 182.524 14.4088 182.712 15.5046C182.895 16.6004 182.989 17.7831 182.989 19.0579V29.5281H177.014V20.2297C177.014 19.6818 176.992 19.1176 176.953 18.5317C176.914 17.9458 176.793 17.4033 176.594 16.9097C176.394 16.416 176.09 16.0091 175.675 15.6999C175.266 15.3853 174.674 15.2334 173.905 15.2334C173.136 15.2334 172.511 15.369 172.035 15.6456C171.559 15.9169 171.194 16.2858 170.939 16.7415C170.685 17.1972 170.519 17.7126 170.442 18.2822C170.364 18.8572 170.32 19.454 170.32 20.0778V29.5281H164.345V10.5462H164.356Z" fill="#00DDA8"/>
<path id="Vector_9" d="M76.4077 26.0669C79.8329 26.0669 82.6095 23.3685 82.6095 20.0398C82.6095 16.7111 79.8329 14.0127 76.4077 14.0127C72.9826 14.0127 70.2059 16.7111 70.2059 20.0398C70.2059 23.3685 72.9826 26.0669 76.4077 26.0669Z" fill="#00DDA8"/>
<path id="Vector_10" d="M83.1792 17.0833L81.2927 15.2334L75.0466 21.3582L71.5225 17.9025L69.636 19.7524L75.0466 25.058L76.9332 23.2081L83.1792 17.0833Z" fill="white"/>
</g>
<defs>
<clipPath id="clip0_883_6482">
<rect width="183" height="30" fill="white"/>
</clipPath>
</defs>
</svg>
