<svg width="28" height="28" viewBox="0 0 28 28" fill="none" xmlns="http://www.w3.org/2000/svg">
<g id="mdi:color">
<path id="Vector" d="M20.4167 14C19.9525 14 19.5074 13.8156 19.1792 13.4874C18.851 13.1592 18.6667 12.7141 18.6667 12.25C18.6667 11.7859 18.851 11.3408 19.1792 11.0126C19.5074 10.6844 19.9525 10.5 20.4167 10.5C20.8808 10.5 21.3259 10.6844 21.6541 11.0126C21.9823 11.3408 22.1667 11.7859 22.1667 12.25C22.1667 12.7141 21.9823 13.1592 21.6541 13.4874C21.3259 13.8156 20.8808 14 20.4167 14ZM16.9167 9.33333C16.4525 9.33333 16.0074 9.14896 15.6792 8.82077C15.351 8.49258 15.1667 8.04746 15.1667 7.58333C15.1667 7.1192 15.351 6.67408 15.6792 6.3459C16.0074 6.01771 16.4525 5.83333 16.9167 5.83333C17.3808 5.83333 17.8259 6.01771 18.1541 6.3459C18.4823 6.67408 18.6667 7.1192 18.6667 7.58333C18.6667 8.04746 18.4823 8.49258 18.1541 8.82077C17.8259 9.14896 17.3808 9.33333 16.9167 9.33333ZM11.0833 9.33333C10.6192 9.33333 10.1741 9.14896 9.8459 8.82077C9.51771 8.49258 9.33333 8.04746 9.33333 7.58333C9.33333 7.1192 9.51771 6.67408 9.8459 6.3459C10.1741 6.01771 10.6192 5.83333 11.0833 5.83333C11.5475 5.83333 11.9926 6.01771 12.3208 6.3459C12.649 6.67408 12.8333 7.1192 12.8333 7.58333C12.8333 8.04746 12.649 8.49258 12.3208 8.82077C11.9926 9.14896 11.5475 9.33333 11.0833 9.33333ZM7.58333 14C7.1192 14 6.67408 13.8156 6.3459 13.4874C6.01771 13.1592 5.83333 12.7141 5.83333 12.25C5.83333 11.7859 6.01771 11.3408 6.3459 11.0126C6.67408 10.6844 7.1192 10.5 7.58333 10.5C8.04746 10.5 8.49258 10.6844 8.82077 11.0126C9.14896 11.3408 9.33333 11.7859 9.33333 12.25C9.33333 12.7141 9.14896 13.1592 8.82077 13.4874C8.49258 13.8156 8.04746 14 7.58333 14ZM14 3.5C11.2152 3.5 8.54451 4.60625 6.57538 6.57538C4.60625 8.54451 3.5 11.2152 3.5 14C3.5 16.7848 4.60625 19.4555 6.57538 21.4246C8.54451 23.3938 11.2152 24.5 14 24.5C14.4641 24.5 14.9092 24.3156 15.2374 23.9874C15.5656 23.6592 15.75 23.2141 15.75 22.75C15.75 22.295 15.575 21.8867 15.295 21.5833C15.0267 21.2683 14.8517 20.86 14.8517 20.4167C14.8517 19.9525 15.036 19.5074 15.3642 19.1792C15.6924 18.851 16.1375 18.6667 16.6017 18.6667H18.6667C20.2138 18.6667 21.6975 18.0521 22.7915 16.9581C23.8854 15.8642 24.5 14.3804 24.5 12.8333C24.5 7.67667 19.7983 3.5 14 3.5Z" fill="#5F5F5F"/>
</g>
</svg>
