<svg width="10" height="12" viewBox="0 0 10 12" fill="none" xmlns="http://www.w3.org/2000/svg">
<path id="Vector" d="M4.65166 0.495717C4.69665 0.483721 4.74357 0.480712 4.78973 0.48686C4.83589 0.493009 4.88039 0.508195 4.92067 0.531551L9.21714 3.01212C9.29854 3.05911 9.35793 3.13651 9.38225 3.22729C9.40658 3.31808 9.39384 3.4148 9.34685 3.4962C9.10588 3.91357 8.72091 4.09558 8.42624 4.17506C8.30461 4.20713 8.19342 4.22395 8.10336 4.23252L6.53316 6.95219L6.56402 7.00929C6.64362 7.15917 6.74491 7.37069 6.8283 7.61607C6.98979 8.08903 7.11613 8.77739 6.77133 9.3746C6.72434 9.45599 6.64694 9.51538 6.55616 9.53971C6.46537 9.56403 6.36865 9.5513 6.28726 9.50431L3.83213 8.08684L2.23748 10.8489C2.13967 11.0183 1.56844 11.6901 1.39904 11.5923C1.22963 11.4945 1.52589 10.6639 1.6237 10.4945L3.21835 7.73247L0.76322 6.315C0.681827 6.26801 0.622436 6.19061 0.598111 6.09983C0.573786 6.00905 0.58652 5.91232 0.633512 5.83093C0.978312 5.23372 1.63762 4.99895 2.12735 4.90197C2.36574 4.85577 2.60768 4.83034 2.85047 4.82598L4.42067 2.10632C4.37491 2.00683 4.33755 1.90368 4.30899 1.79796C4.23048 1.50303 4.19598 1.07802 4.4366 0.661258C4.45981 0.620888 4.49075 0.585489 4.52765 0.557084C4.56455 0.52868 4.60669 0.507827 4.65166 0.495717Z" fill="#5F5F5F"/>
</svg>
